# xmcd
#
# Track frame offsets:
#	150
#	12404
#	26159
#	48510
#	60957
#	70717
#	82215
#	92953
#	107182
#	117765
#	128637
#	141084
#	152749
#	166323
#	176456
#	189820
#	202084
#	213815
#
# Disc length: 3026 seconds
#
# Revision: 1
# Processed by: cddbd v1.4PL0 Copyright (c) Steve Scherf et al.
# Submitted via: audiograbber 1.82.02
#
DISCID=f40bd012
DTITLE=Various Artist - The Great Soul Collection - Disc 3
DYEAR=1900
DGENRE=Soul
TTITLE0=Martha Reeves - Heatwave
TTITLE1=Ben E. King - Stand By Me
TTITLE2=Gloria Gaynor - Top Shelf
TTITLE3=Joe Simon - The Chokin' Kind
TTITLE4=Dee Clark - Just Keep It Up
TTITLE5=The Shirelles - Baby It's You
TTITLE6=Brenton Wood - Gimme Little Sign
TTITLE7=Aaron Neville - Tell It Like It Is
TTITLE8=Archie Bell - I Just Can't Stop Dancing
TTITLE9=The Crystals - There's No Other (Like My Baby)
TTITLE10=Sam and Dave - I Thank You
TTITLE11=The Box Tops - Cry Like a Baby
TTITLE12=The Impressions - It's Alright
TTITLE13=Carla Thomas - Gee Wiz (look at his eyes)
TTITLE14=Martha Reeves - Jimmy Mack
TTITLE15=Mary Johnson - I Love the Way You Love
TTITLE16=Clarence Carter - Slip Away
TTITLE17=Percy Sledge - When a Man Loves a Woman
EXTD=
EXTT0=
EXTT1=
EXTT2=
EXTT3=
EXTT4=
EXTT5=
EXTT6=
EXTT7=
EXTT8=
EXTT9=
EXTT10=
EXTT11=
EXTT12=
EXTT13=
EXTT14=
EXTT15=
EXTT16=
EXTT17=
PLAYORDER=
